<svg width="16" height="16" viewBox="0 0 16 16" fill="none" xmlns="http://www.w3.org/2000/svg">
<path d="M13.0909 16.0002H2.90909C2.13755 16.0002 1.39761 15.6938 0.852053 15.1482C0.306493 14.6027 0 13.8627 0 13.0912V4.36411C0 3.59259 0.306493 2.85266 0.852053 2.30711C1.39761 1.76156 2.13755 1.45508 2.90909 1.45508H13.0909C13.8624 1.45508 14.6024 1.76156 15.1479 2.30711C15.6935 2.85266 16 3.59259 16 4.36411V13.0912C16 13.8627 15.6935 14.6027 15.1479 15.1482C14.6024 15.6938 13.8624 16.0002 13.0909 16.0002ZM2.90909 2.90959C2.52332 2.90959 2.15335 3.06284 1.88057 3.33561C1.60779 3.60839 1.45455 3.97835 1.45455 4.36411V13.0912C1.45455 13.477 1.60779 13.8469 1.88057 14.1197C2.15335 14.3925 2.52332 14.5457 2.90909 14.5457H13.0909C13.4767 14.5457 13.8466 14.3925 14.1194 14.1197C14.3922 13.8469 14.5455 13.477 14.5455 13.0912V4.36411C14.5455 3.97835 14.3922 3.60839 14.1194 3.33561C13.8466 3.06284 13.4767 2.90959 13.0909 2.90959H2.90909Z" fill="#ACACAC"/>
<path d="M5.09078 0.727258C5.09078 0.325605 4.76516 0 4.3635 0C3.96184 0 3.63623 0.325605 3.63623 0.727258V3.63629C3.63623 4.03794 3.96184 4.36355 4.3635 4.36355C4.76516 4.36355 5.09078 4.03794 5.09078 3.63629V0.727258Z" fill="#ACACAC"/>
<path d="M12.3637 0.727258C12.3637 0.325605 12.0381 0 11.6365 0C11.2348 0 10.9092 0.325605 10.9092 0.727258V3.63629C10.9092 4.03794 11.2348 4.36355 11.6365 4.36355C12.0381 4.36355 12.3637 4.03794 12.3637 3.63629V0.727258Z" fill="#ACACAC"/>
<path d="M12.3637 5.81738H3.63645C3.23479 5.81738 2.90918 6.14299 2.90918 6.54464C2.90918 6.94629 3.23479 7.2719 3.63645 7.2719H12.3637C12.7654 7.2719 13.091 6.94629 13.091 6.54464C13.091 6.14299 12.7654 5.81738 12.3637 5.81738Z" fill="#ACACAC"/>
</svg>
