<svg width="14" height="14" viewBox="0 0 14 14" fill="none" xmlns="http://www.w3.org/2000/svg">
<g clip-path="url(#clip0_87_3466)">
<path d="M7 14.0001C3.14009 14.0001 0 10.8596 0 7.00006C0 3.14049 3.14009 6.10352e-05 7 6.10352e-05C10.8599 6.10352e-05 14 3.14049 14 7.00006C14 10.8596 10.8599 14.0001 7 14.0001ZM7 1.40006C3.91221 1.40006 1.4 3.91227 1.4 7.00006C1.4 10.0879 3.91221 12.6001 7 12.6001C10.0878 12.6001 12.6 10.0879 12.6 7.00006C12.6 3.91227 10.0878 1.40006 7 1.40006Z" fill="#121212"/>
<path d="M5.59871 9.19998C5.30545 9.19998 5.03235 9.01472 4.9346 8.72146C4.81224 8.35437 5.01048 7.95789 5.37723 7.83621L6.99871 7.29548V4.29998C6.99871 3.91306 7.31214 3.59998 7.69871 3.59998C8.08528 3.59998 8.39871 3.91306 8.39871 4.29998V7.79998C8.39871 8.10144 8.20594 8.36873 7.9202 8.46374L5.8202 9.16374C5.74671 9.18835 5.67186 9.19998 5.59871 9.19998Z" fill="#121212"/>
</g>
<defs>
<clipPath id="clip0_87_3466">
<rect width="14" height="14" fill="white"/>
</clipPath>
</defs>
</svg>
