<svg width="14" height="14" viewBox="0 0 14 14" fill="none" xmlns="http://www.w3.org/2000/svg">
<g clip-path="url(#clip0_87_4644)">
<path d="M0.636434 4.67418H5.46443L4.00508 6.07546C3.9443 6.13183 3.89581 6.19926 3.86246 6.27382C3.8291 6.34838 3.81154 6.42857 3.81081 6.50971C3.81008 6.59085 3.82618 6.67132 3.85818 6.74643C3.89018 6.82153 3.93744 6.88976 3.99719 6.94714C4.05695 7.00452 4.12801 7.0499 4.20622 7.08062C4.28444 7.11135 4.36825 7.12681 4.45275 7.12611C4.53726 7.1254 4.62077 7.10855 4.69842 7.07652C4.77606 7.04449 4.84629 6.99793 4.905 6.93957L7.45074 4.49512C7.57005 4.38052 7.63708 4.22511 7.63708 4.06307C7.63708 3.90102 7.57005 3.74561 7.45074 3.63101L4.905 1.18657C4.84629 1.1282 4.77606 1.08164 4.69842 1.04961C4.62077 1.01759 4.53726 1.00073 4.45275 1.00002C4.36825 0.999318 4.28444 1.01478 4.20622 1.04551C4.12801 1.07623 4.05695 1.12161 3.99719 1.17899C3.93744 1.23637 3.89018 1.3046 3.85818 1.3797C3.82618 1.45481 3.81008 1.53528 3.81081 1.61642C3.81154 1.69756 3.8291 1.77775 3.86246 1.85231C3.89581 1.92687 3.9443 1.9943 4.00508 2.05068L5.46443 3.45195H0.636434C0.467641 3.45195 0.305762 3.51634 0.186407 3.63094C0.0670527 3.74555 0 3.90099 0 4.06307C0 4.22514 0.0670527 4.38058 0.186407 4.49519C0.305762 4.60979 0.467641 4.67418 0.636434 4.67418Z" fill="#121212"/>
<path d="M13.3639 8.34087H8.53593L9.99528 6.93959C10.1112 6.82433 10.1754 6.66996 10.1739 6.50973C10.1725 6.3495 10.1055 6.19623 9.98752 6.08292C9.86952 5.96962 9.7099 5.90535 9.54303 5.90395C9.37616 5.90256 9.21539 5.96416 9.09536 6.07548L6.54962 8.51992C6.43031 8.63452 6.36328 8.78993 6.36328 8.95198C6.36328 9.11402 6.43031 9.26943 6.54962 9.38403L9.09536 11.8285C9.21539 11.9398 9.37616 12.0014 9.54303 12C9.7099 11.9986 9.86952 11.9343 9.98752 11.821C10.1055 11.7077 10.1725 11.5545 10.1739 11.3942C10.1754 11.234 10.1112 11.0796 9.99528 10.9644L8.53593 9.56309H13.3639C13.5327 9.56309 13.6946 9.4987 13.814 9.3841C13.9333 9.26949 14.0004 9.11405 14.0004 8.95198C14.0004 8.7899 13.9333 8.63446 13.814 8.51986C13.6946 8.40525 13.5327 8.34087 13.3639 8.34087Z" fill="#121212"/>
</g>
<defs>
<clipPath id="clip0_87_4644">
<rect width="14" height="14" fill="white"/>
</clipPath>
</defs>
</svg>
