<svg width="16" height="14" viewBox="0 0 16 14" fill="none" xmlns="http://www.w3.org/2000/svg">
<path d="M8.00939 14C7.7841 14 7.63392 13.9256 7.48373 13.7767L1.92678 8.26917C1.02566 7.37605 0.5 6.18523 0.5 4.84555C0.5 3.5803 1.02566 2.31505 1.92678 1.42194C3.57885 -0.215445 6.13204 -0.438724 8.00939 0.752099C9.88673 -0.438724 12.4399 -0.215445 14.092 1.42194C15.9693 3.2826 15.9693 6.40851 14.092 8.26917L8.53504 13.7767C8.38486 13.9256 8.23467 14 8.00939 14ZM5.3811 1.49636C4.55507 1.49636 3.65394 1.79407 2.9781 2.46391C2.37735 3.13374 2.00188 3.95243 2.00188 4.84555C2.00188 5.73867 2.37735 6.55736 2.9781 7.2272L8.00939 12.2138L13.0407 7.2272C14.3924 5.88752 14.3924 3.80358 13.0407 2.46391C11.8392 1.27308 9.88673 1.12423 8.53504 2.24063C8.23467 2.46391 7.8592 2.46391 7.55882 2.24063C6.88298 1.71964 6.13204 1.49636 5.3811 1.49636Z" fill="#121212"/>
</svg>
