<svg width="50" height="50" viewBox="0 0 50 50" fill="none" xmlns="http://www.w3.org/2000/svg">
<path fill-rule="evenodd" clip-rule="evenodd" d="M1.46484 50H0V48.5352V46.6202C0 44.556 1.02011 42.7301 2.58367 41.619C2.05091 40.8919 1.73633 39.9949 1.73633 39.0244C1.73633 36.5973 3.70378 34.6299 6.13086 34.6299C8.55781 34.6299 10.5254 36.5973 10.5254 39.0244C10.5254 39.9948 10.2109 40.8917 9.67819 41.6188C11.242 42.7298 12.2622 44.5558 12.2622 46.6202V48.5352V50H10.7974H1.46484ZM6.11557 40.4892L6.13105 40.4892L6.14622 40.4892C6.94811 40.4809 7.5957 39.8282 7.5957 39.0244C7.5957 38.2154 6.93985 37.5596 6.13086 37.5596C5.3218 37.5596 4.66602 38.2154 4.66602 39.0244C4.66602 39.8283 5.31359 40.481 6.11557 40.4892ZM6.15021 43.4189C7.90957 43.4292 9.33252 44.8585 9.33252 46.6202V47.0703H2.92969V46.6202C2.92969 44.8585 4.35257 43.4293 6.11174 43.4189L6.13086 43.4189L6.15021 43.4189ZM1.46484 15.3701H0V13.9053V11.9904C0 9.9262 1.0201 8.10023 2.58369 6.98915C2.05092 6.26202 1.73633 5.365 1.73633 4.39453C1.73633 1.96758 3.70375 0 6.13086 0C8.55784 0 10.5254 1.96755 10.5254 4.39453C10.5254 5.36491 10.2109 6.26183 9.67817 6.98892C11.242 8.09997 12.2622 9.92605 12.2622 11.9904V13.9053V15.3701H10.7974H1.46484ZM6.11542 5.85929L6.13105 5.85928L6.14637 5.85929C6.94819 5.85098 7.5957 5.19831 7.5957 4.39453C7.5957 3.58557 6.93982 2.92969 6.13086 2.92969C5.32184 2.92969 4.66602 3.58554 4.66602 4.39453C4.66602 5.19837 5.31351 5.85101 6.11542 5.85929ZM6.15034 8.78902C7.90961 8.7994 9.33252 10.2287 9.33252 11.9904V12.4404H2.92969V11.9904C2.92969 10.2288 4.35253 8.79949 6.1116 8.78902L6.13086 8.78906L6.15034 8.78902ZM43.8466 23.2804C43.0476 23.2689 42.4033 22.6175 42.4033 21.8157C42.4033 21.0067 43.0592 20.3508 43.8682 20.3508C44.6772 20.3508 45.333 21.0067 45.333 21.8157C45.333 22.6174 44.689 23.2687 43.89 23.2804C43.883 23.2803 43.876 23.2803 43.8689 23.2803C43.8615 23.2803 43.8541 23.2803 43.8466 23.2804ZM40.3211 24.4105C39.7883 23.6833 39.4736 22.7863 39.4736 21.8157C39.4736 19.3887 41.4412 17.4211 43.8682 17.4211C46.2953 17.4211 48.2627 19.3887 48.2627 21.8157C48.2627 22.7859 47.9483 23.6828 47.4157 24.4098C48.9796 25.5208 50 27.347 50 29.4115V31.3264V32.7913H48.5352H39.2026H37.7378V31.3264V29.4115C37.7378 27.3474 38.7577 25.5216 40.3211 24.4105ZM43.8959 26.2101C43.8866 26.2102 43.8774 26.2102 43.8682 26.2102C43.8592 26.2102 43.8503 26.2102 43.8414 26.2101C42.0859 26.2249 40.6675 27.6525 40.6675 29.4115V29.8616H47.0703V29.4115C47.0703 27.6523 45.6515 26.2246 43.8959 26.2101Z" fill="url(#paint0_linear_65_1075)"/>
<path fill-rule="evenodd" clip-rule="evenodd" d="M16.6182 46.7091H15.1533V43.7794H16.6182H43.3038H44.7687V46.7091H43.3038H16.6182ZM15.1533 40.8497H16.6182H48.5348H49.9996V37.92H48.5348H16.6182H15.1533V40.8497ZM16.6182 12.0795H15.1533V9.14978H16.6182H43.3038H44.7687V12.0795H43.3038H16.6182ZM16.6182 6.22009H15.1533V3.29041H16.6182H48.5348H49.9996V6.22009H48.5348H16.6182ZM0 23.6412H1.46484H33.3814H34.8463V20.7115H33.3814H1.46484H0V23.6412ZM1.46484 29.5006H0V26.5709H1.46484H28.1505H29.6153V29.5006H28.1505H1.46484Z" fill="#121212"/>
<defs>
<linearGradient id="paint0_linear_65_1075" x1="98.5905" y1="25.0001" x2="2.59775e-07" y2="25.0001" gradientUnits="userSpaceOnUse">
<stop stop-color="#7EBA47"/>
<stop offset="1" stop-color="#4C7E3A"/>
</linearGradient>
</defs>
</svg>
