<svg width="20" height="25" viewBox="0 0 20 25" fill="none" xmlns="http://www.w3.org/2000/svg">
<path d="M10.9375 6.25C10.9375 5.73223 10.5178 5.3125 10 5.3125C9.48223 5.3125 9.0625 5.73223 9.0625 6.25V10C9.0625 10.5178 9.48223 10.9375 10 10.9375C10.5178 10.9375 10.9375 10.5178 10.9375 10V6.25Z" fill="#121212"/>
<path fill-rule="evenodd" clip-rule="evenodd" d="M0 10C0 4.47715 4.47715 0 10 0C15.5229 0 20 4.47715 20 10V15C20 20.5229 15.5229 25 10 25C4.47715 25 0 20.5229 0 15V10ZM18.125 10V15C18.125 19.4874 14.4874 23.125 10 23.125C5.5127 23.125 1.875 19.4874 1.875 15V10C1.875 5.5127 5.5127 1.875 10 1.875C14.4874 1.875 18.125 5.5127 18.125 10Z" fill="#121212"/>
</svg>
