<svg width="10" height="14" viewBox="0 0 10 14" fill="none" xmlns="http://www.w3.org/2000/svg">
<path d="M7.85714 0H2.14286C0.964286 0 0 0.945 0 2.1V11.9C0 13.055 0.964286 14 2.14286 14H7.85714C9.03571 14 10 13.055 10 11.9V2.1C10 0.945 9.03571 0 7.85714 0ZM8.57143 11.9C8.57143 12.285 8.25 12.6 7.85714 12.6H2.14286C1.75 12.6 1.42857 12.285 1.42857 11.9V2.1C1.42857 1.715 1.75 1.4 2.14286 1.4H2.85714C2.85714 1.785 3.17857 2.1 3.57143 2.1H6.42857C6.82143 2.1 7.14286 1.785 7.14286 1.4H7.85714C8.25 1.4 8.57143 1.715 8.57143 2.1V11.9Z" fill="white"/>
</svg>
