<svg width="14" height="14" viewBox="0 0 14 14" fill="none" xmlns="http://www.w3.org/2000/svg">
<path d="M11.1996 4.2C10.7796 4.2 10.4996 3.92 10.4996 3.5V2.1C10.4996 1.68 10.2196 1.4 9.79961 1.4H4.19961C3.77961 1.4 3.49961 1.68 3.49961 2.1V3.5C3.49961 3.92 3.21961 4.2 2.79961 4.2C2.37961 4.2 2.09961 3.92 2.09961 3.5V2.1C2.09961 0.91 3.00961 0 4.19961 0H9.79961C10.9896 0 11.8996 0.91 11.8996 2.1V3.5C11.8996 3.92 11.6196 4.2 11.1996 4.2Z" fill="#121212"/>
<path d="M10.5 11.2V9.80005C11.55 9.80005 12.18 9.80005 12.39 9.59005C12.6 9.38005 12.6 8.75005 12.6 7.70005V6.30005C12.6 5.25005 12.6 4.62005 12.39 4.41005C12.18 4.20005 11.55 4.20005 10.5 4.20005H3.5C2.45 4.20005 1.82 4.20005 1.61 4.41005C1.4 4.62005 1.4 5.25005 1.4 6.30005V7.70005C1.4 8.75005 1.4 9.38005 1.61 9.59005C1.82 9.80005 2.45 9.80005 3.5 9.80005V11.2C2.03 11.2 1.26 11.2 0.63 10.57C8.34465e-08 9.94005 0 9.17005 0 7.70005V6.30005C0 4.83005 8.34465e-08 4.06005 0.63 3.43005C1.26 2.80005 2.03 2.80005 3.5 2.80005H10.5C11.97 2.80005 12.74 2.80005 13.37 3.43005C14 4.06005 14 4.83005 14 6.30005V7.70005C14 9.17005 14 9.94005 13.37 10.57C12.74 11.2 11.97 11.2 10.5 11.2Z" fill="#121212"/>
<path d="M7.69883 14H6.29883C4.82883 14 4.05883 14 3.42883 13.37C2.79883 12.74 2.79883 11.97 2.79883 10.5C2.79883 9.03 2.79883 8.26 3.42883 7.63C4.05883 7 4.82883 7 6.29883 7H7.69883C9.16883 7 9.93883 7 10.5688 7.63C11.1988 8.26 11.1988 9.03 11.1988 10.5C11.1988 11.97 11.1988 12.74 10.5688 13.37C9.93883 14 9.16883 14 7.69883 14ZM6.29883 8.4C5.24883 8.4 4.61883 8.4 4.40883 8.61C4.19883 8.82 4.19883 9.45 4.19883 10.5C4.19883 11.55 4.19883 12.18 4.40883 12.39C4.61883 12.6 5.24883 12.6 6.29883 12.6H7.69883C8.74883 12.6 9.37883 12.6 9.58883 12.39C9.79883 12.18 9.79883 11.55 9.79883 10.5C9.79883 9.45 9.79883 8.82 9.58883 8.61C9.37883 8.4 8.74883 8.4 7.69883 8.4H6.29883Z" fill="#121212"/>
</svg>
