<svg width="14" height="14" viewBox="0 0 14 14" fill="none" xmlns="http://www.w3.org/2000/svg">
<path d="M5.98706 11.9738C7.31544 11.9735 8.60551 11.5288 9.65189 10.7105L12.9418 14.0004L14 12.9422L10.7101 9.65228C11.5288 8.60581 11.9738 7.31538 11.9741 5.9867C11.9741 2.68558 9.28818 -0.000366211 5.98706 -0.000366211C2.68595 -0.000366211 0 2.68558 0 5.9867C0 9.28781 2.68595 11.9738 5.98706 11.9738ZM5.98706 1.4964C8.46346 1.4964 10.4774 3.5103 10.4774 5.9867C10.4774 8.4631 8.46346 10.477 5.98706 10.477C3.51066 10.477 1.49677 8.4631 1.49677 5.9867C1.49677 3.5103 3.51066 1.4964 5.98706 1.4964Z" fill="#121212"/>
</svg>
