<svg width="14" height="14" viewBox="0 0 14 14" fill="none" xmlns="http://www.w3.org/2000/svg">
<path d="M11.2613 9.52576C10.0336 9.52576 9.02246 10.5361 9.02246 11.7629C9.02246 12.9897 10.0336 14 11.2613 14C12.4891 14 13.5002 12.9897 13.5002 11.7629C13.5002 10.5361 12.4891 9.52576 11.2613 9.52576ZM11.2613 12.4845C10.828 12.4845 10.4669 12.1237 10.4669 11.6907C10.4669 11.2577 10.828 10.8969 11.2613 10.8969C11.6947 10.8969 12.0558 11.3299 12.0558 11.7629C12.0558 12.1959 11.6947 12.4845 11.2613 12.4845Z" fill="#121212"/>
<path d="M7.43305 5.34021C7.5775 5.34021 7.72194 5.34021 7.79416 5.19588L9.88861 3.96907C10.2497 4.25773 10.7553 4.47423 11.2608 4.47423C12.4886 4.47423 13.4997 3.46392 13.4997 2.23711C13.4997 1.01031 12.4886 0 11.2608 0C10.0331 0 9.02194 1.01031 9.02194 2.23711C9.02194 2.38144 9.02194 2.59794 9.09416 2.74227L7.07194 3.96907C6.71083 4.18557 6.63861 4.61856 6.85527 4.97938C6.99972 5.19588 7.21638 5.34021 7.43305 5.34021ZM11.2608 1.51546C11.6942 1.51546 12.0553 1.87629 12.0553 2.30928C12.0553 2.74227 11.6942 3.10309 11.2608 3.10309C10.8275 3.10309 10.4664 2.6701 10.4664 2.23711C10.4664 1.80412 10.8275 1.51546 11.2608 1.51546Z" fill="#121212"/>
<path d="M8.51667 9.23716L6.49444 8.01035C6.56667 7.72169 6.63889 7.36087 6.63889 7.07221C6.63889 5.34025 5.26667 3.96912 3.53333 3.96912C1.8 3.96912 0.5 5.26808 0.5 7.00004C0.5 8.732 1.87222 10.1031 3.60556 10.1031C4.47222 10.1031 5.19444 9.74231 5.77222 9.23716L7.79444 10.464C7.93889 10.5361 8.01111 10.6083 8.15556 10.6083C8.37222 10.6083 8.66111 10.464 8.80555 10.2475C8.95 9.88664 8.87778 9.38149 8.51667 9.23716ZM3.60556 8.65984C2.73889 8.65984 1.94444 7.93819 1.94444 7.00004C1.94444 6.0619 2.66667 5.34025 3.60556 5.34025C4.54444 5.34025 5.26667 6.0619 5.26667 7.00004C5.26667 7.93819 4.54444 8.65984 3.60556 8.65984Z" fill="#121212"/>
</svg>
