<?xml version="1.0" encoding="UTF-8" standalone="no"?>
<svg
   width="14"
   height="14"
   viewBox="0 0 14 14"
   fill="none"
   version="1.1"
   id="svg3"
   sodipodi:docname="telegram.svg"
   inkscape:version="1.3.2 (091e20e, 2023-11-25, custom)"
   xmlns:inkscape="http://www.inkscape.org/namespaces/inkscape"
   xmlns:sodipodi="http://sodipodi.sourceforge.net/DTD/sodipodi-0.dtd"
   xmlns="http://www.w3.org/2000/svg"
   xmlns:svg="http://www.w3.org/2000/svg">
  <defs
     id="defs3">
    <mask
       maskUnits="userSpaceOnUse"
       id="mask4">
      <g
         id="g5">
        <path
           d="M 0,0 H 14 V 14 H 0 Z"
           fill="#ffffff"
           id="path4" />
      </g>
    </mask>
    <mask
       maskUnits="userSpaceOnUse"
       id="mask5">
      <g
         id="g6">
        <path
           d="M 0,0 H 14 V 14 H 0 Z"
           fill="#ffffff"
           id="path5" />
      </g>
    </mask>
  </defs>
  <sodipodi:namedview
     id="namedview3"
     pagecolor="#ffffff"
     bordercolor="#cccccc"
     borderopacity="1"
     inkscape:showpageshadow="0"
     inkscape:pageopacity="1"
     inkscape:pagecheckerboard="0"
     inkscape:deskcolor="#d1d1d1"
     inkscape:zoom="84.357143"
     inkscape:cx="6.9940728"
     inkscape:cy="7"
     inkscape:window-width="3440"
     inkscape:window-height="1377"
     inkscape:window-x="-8"
     inkscape:window-y="-8"
     inkscape:window-maximized="1"
     inkscape:current-layer="svg3" />
  <path
     style="color:#000000;fill:#ffffff;stroke-linecap:round;stroke-linejoin:round;stroke-miterlimit:10;-inkscape-stroke:none"
     d="M 13.615234,0.0234375 A 0.54692969,0.54692969 0 0 0 13.230469,0.046875 L 0.32421875,5.8203125 A 0.54692969,0.54692969 0 0 0 0.24414063,6.7753906 L 10.962891,13.908203 a 0.54692969,0.54692969 0 0 0 0.841797,-0.363281 l 2.1875,-12.90625013 A 0.54692969,0.54692969 0 0 0 13.615234,0.0234375 Z M 12.742188,1.4648437 10.867188,12.53125 1.6757812,6.4140625 Z"
     id="path2" />
  <path
     style="color:#000000;fill:#ffffff;stroke-linecap:round;stroke-linejoin:round;stroke-miterlimit:10;-inkscape-stroke:none"
     d="M 10.337891,3.5820313 A 0.546875,0.546875 0 0 0 9.9511719,3.7402344 l -5.25,5.2089844 A 0.54692969,0.54692969 0 0 0 4.5390625,9.3378906 v 4.1152344 a 0.54692969,0.54692969 0 0 0 0.9882812,0.324219 L 7.5214844,11.054688 A 0.546875,0.546875 0 0 0 7.4042969,10.291016 0.546875,0.546875 0 0 0 6.640625,10.408203 L 5.6328125,11.78125 V 9.5664063 L 10.720703,4.5175781 a 0.546875,0.546875 0 0 0 0.0039,-0.7734375 0.546875,0.546875 0 0 0 -0.386718,-0.1621093 z"
     id="path3" />
</svg>
