<svg width="14" height="14" viewBox="0 0 14 14" fill="none" xmlns="http://www.w3.org/2000/svg">
<path fill-rule="evenodd" clip-rule="evenodd" d="M6.99978 5.6C8.19643 5.6 9.16645 4.65979 9.16645 3.5C9.16645 2.3402 8.19643 1.4 6.99978 1.4C5.80313 1.4 4.83312 2.3402 4.83312 3.5C4.83312 4.65979 5.80313 5.6 6.99978 5.6ZM6.99978 7C8.99413 7 10.6109 5.43299 10.6109 3.5C10.6109 1.56701 8.99413 0 6.99978 0C5.00542 0 3.38867 1.56701 3.38867 3.5C3.38867 5.43299 5.00542 7 6.99978 7Z" fill="#121212"/>
<path fill-rule="evenodd" clip-rule="evenodd" d="M4.83333 9.79999C3.23784 9.79999 1.94444 11.0536 1.94444 12.6V13.3C1.94444 13.6866 1.62109 14 1.22222 14C0.823353 14 0.5 13.6866 0.5 13.3V12.6C0.5 10.2804 2.4401 8.39999 4.83333 8.39999H9.16667C11.5599 8.39999 13.5 10.2804 13.5 12.6V13.3C13.5 13.6866 13.1767 14 12.7778 14C12.3789 14 12.0556 13.6866 12.0556 13.3V12.6C12.0556 11.0536 10.7621 9.79999 9.16667 9.79999H4.83333Z" fill="#121212"/>
</svg>
