<svg width="16" height="10" viewBox="0 0 16 10" fill="none" xmlns="http://www.w3.org/2000/svg">
<path d="M8.09658 9.99989C10.4112 9.99989 9.5859 8.53457 9.76456 8.11324C9.76189 7.79858 9.75923 7.49592 9.76989 7.31192C9.91656 7.35325 10.2626 7.52858 10.9772 8.22324C12.0805 9.33656 12.3625 9.99989 13.2539 9.99989H14.8945C15.4145 9.99989 15.6852 9.78456 15.8205 9.6039C15.9512 9.42923 16.0792 9.12257 15.9392 8.64524C15.5732 7.49592 13.4385 5.51127 13.3059 5.30194C13.3259 5.26328 13.3579 5.21194 13.3745 5.18528H13.3732C13.7945 4.62862 15.4025 2.21931 15.6392 1.25532C15.6398 1.25399 15.6405 1.25199 15.6405 1.24999C15.7685 0.809991 15.6512 0.524661 15.5298 0.363329C15.3472 0.121999 15.0565 0 14.6638 0H13.0232C12.4739 0 12.0572 0.276664 11.8465 0.781325C11.4939 1.67798 10.5032 3.52196 9.76056 4.17462C9.73789 3.24996 9.75323 2.54397 9.76523 2.01931C9.78923 0.995989 9.86656 0 8.80457 0H6.22593C5.56061 0 4.92395 0.726659 5.61327 1.58932C6.21593 2.34531 5.82994 2.76664 5.95993 4.86395C5.45327 4.32062 4.55195 2.8533 3.91462 0.977989C3.73596 0.470662 3.4653 0.000666611 2.7033 0.000666611H1.06265C0.397329 0.000666611 0 0.363329 0 0.970656C0 2.33464 3.0193 9.99989 8.09658 9.99989ZM2.7033 1.00066C2.84797 1.00066 2.86264 1.00066 2.96997 1.30532C3.62263 3.2273 5.08661 6.07127 6.15593 6.07127C6.95926 6.07127 6.95926 5.24794 6.95926 4.93795L6.95859 2.46997C6.91459 1.65332 6.61726 1.24665 6.42193 0.999989L8.76057 1.00266C8.7619 1.01399 8.74724 3.73263 8.76724 4.39128C8.76724 5.32661 9.5099 5.8626 10.6692 4.68928C11.8925 3.30863 12.7385 1.24465 12.7725 1.16065C12.8225 1.04066 12.8659 0.999989 13.0232 0.999989H14.6638H14.6705C14.6698 1.00199 14.6698 1.00399 14.6692 1.00599C14.5192 1.70598 13.0385 3.93662 12.5432 4.62928C12.5352 4.63995 12.5279 4.65128 12.5205 4.66262C12.3025 5.01861 12.1252 5.41194 12.5505 5.96527C12.5892 6.01193 12.6905 6.12127 12.8372 6.27326C13.2932 6.74393 14.8572 8.35324 14.9958 8.99323C14.9038 9.0079 14.8038 8.99723 13.2539 9.00057C12.9239 9.00057 12.6659 8.50724 11.6812 7.51392C10.7959 6.65259 10.2212 6.3006 9.69789 6.3006C8.6819 6.3006 8.7559 7.12526 8.76524 8.12258C8.76857 9.2039 8.7619 8.8619 8.76924 8.9299C8.7099 8.95324 8.53991 8.9999 8.09658 8.9999C3.86662 8.9999 1.11199 2.28597 1.00599 1.00266C1.04266 0.999322 1.54732 1.00132 2.7033 1.00066Z" fill="white"/>
</svg>
