<svg width="14" height="14" viewBox="0 0 14 14" fill="none" xmlns="http://www.w3.org/2000/svg">
<path d="M11.9498 2.05037C7.55034 -2.33975 0.0058789 0.788294 0 7.00011V13.4532C0 13.7553 0.244836 14.0001 0.546875 14.0001H6.99999C13.2151 13.9935 16.338 6.44697 11.9498 2.05037ZM6.99999 12.9064H1.09375V7.00011C1.09375 3.74339 3.74327 1.09386 6.99999 1.09386C14.8358 1.4184 14.8328 12.5833 6.99999 12.9064ZM9.11238 6.98605C8.89863 6.77288 8.55254 6.77318 8.33921 6.98682L7.9809 7.34559C7.80983 7.24035 7.56459 7.06133 7.26895 6.7664C6.96986 6.46805 6.78912 6.21799 6.68363 6.04398L7.03773 5.68936C7.24929 5.4775 7.25115 5.13491 7.04191 4.92075L5.14683 2.98118C5.04478 2.87675 4.90519 2.81744 4.75918 2.81652H4.75568C4.61092 2.81652 4.47198 2.87394 4.36945 2.97626L3.00436 4.33817C2.90978 4.4325 2.85302 4.55823 2.84479 4.69156C2.70123 7.26408 6.25458 11.1725 9.1783 11.1794C9.22648 11.1795 9.51931 11.1116 9.61247 11.0187L10.9956 9.63877C11.2081 9.43506 11.208 9.06814 10.9956 8.86446L9.11238 6.98605ZM9.00787 10.0769C8.83665 10.0603 8.55503 10.0145 8.19568 9.88933C7.62819 9.69168 6.74562 9.25058 5.76398 8.27137C4.55716 7.02515 4.08917 6.0285 3.94548 4.94424L4.75073 4.14085L5.8821 5.29881L5.63759 5.54367C5.49978 5.6817 5.44589 5.88265 5.4962 6.0711C5.52485 6.17848 5.70778 6.75398 6.49654 7.54077C7.2847 8.32699 7.84751 8.50677 7.95235 8.53483C8.1411 8.5853 8.34257 8.53127 8.48071 8.39297L8.72694 8.14641L9.83502 9.25167L9.00787 10.0769Z" fill="white"/>
</svg>
