<svg width="356" height="470" viewBox="0 0 356 470" fill="none" xmlns="http://www.w3.org/2000/svg">
<rect width="6" height="470" fill="#EFE9E5"/>
<rect x="20" width="1.0001" height="20.0001" fill="#ACACAC"/>
<rect x="35" width="6" height="30" fill="#EFE9E5"/>
<rect x="55" width="1.0001" height="20.0001" fill="#ACACAC"/>
<rect x="70" width="6" height="30" fill="#EFE9E5"/>
<rect x="90" width="1.0001" height="20.0001" fill="#ACACAC"/>
<rect x="105" width="6" height="30" fill="#EFE9E5"/>
<rect x="125" width="1.0001" height="20.0001" fill="#ACACAC"/>
<rect x="140" width="6" height="30" fill="#EFE9E5"/>
<rect x="160" width="1.0001" height="20.0001" fill="#ACACAC"/>
<rect x="175" width="6" height="30" fill="#EFE9E5"/>
<rect x="195" width="1.0001" height="20.0001" fill="#ACACAC"/>
<rect x="210" width="6" height="30" fill="#EFE9E5"/>
<rect x="230" width="1.0001" height="20.0001" fill="#ACACAC"/>
<rect x="245" width="6" height="30" fill="#EFE9E5"/>
<rect x="265.001" width="1.0001" height="20.0001" fill="#ACACAC"/>
<rect x="280.001" width="6" height="30" fill="#EFE9E5"/>
<rect x="300.001" width="1.0001" height="20.0001" fill="#ACACAC"/>
<rect x="315.001" width="6" height="30" fill="#EFE9E5"/>
<rect x="335.001" width="1.0001" height="20.0001" fill="#ACACAC"/>
<rect x="350.001" width="6" height="140" fill="#EFE9E5"/>
</svg>
