<svg width="44" height="49" viewBox="0 0 44 49" fill="none" xmlns="http://www.w3.org/2000/svg">
<path fill-rule="evenodd" clip-rule="evenodd" d="M12.5005 26.5464L11.7503 20.2044H12.2505L15.31 33.5336L21.8588 27.0338L28.6516 33.6954L31.7495 20.2044H32.2497L31.4995 26.5464V36.4879L44 48.7424V0H27.5L22.7503 22.6434H21.4998L16.7501 0H0V48.7344L12.5005 36.3241V26.5464ZM24.9507 37.6244L21.9355 34.7361L18.9586 37.6244L12.5006 43.8905V44.0163L20.8908 37.6244L22.0001 36.7795L23.1073 37.6244L31.4995 44.0163V43.8985L24.9507 37.6244ZM19.6644 44.3756H24.3335V48.9998H19.6644V44.3756Z" fill="url(#paint0_linear_2008_1060)"/>
<defs>
<linearGradient id="paint0_linear_2008_1060" x1="86.7597" y1="24.4999" x2="2.28602e-07" y2="24.4999" gradientUnits="userSpaceOnUse">
<stop stop-color="#7EBA47"/>
<stop offset="1" stop-color="#4C7E3A"/>
</linearGradient>
</defs>
</svg>
