<svg width="100" height="35" viewBox="0 0 100 35" fill="none" xmlns="http://www.w3.org/2000/svg">
<path d="M30.1795 7.37771C30.3311 7.47851 30.4802 7.58706 30.6293 7.69044L31.2437 7.23297C31.6473 6.94866 32.0535 6.66694 32.4622 6.39297C32.076 6.17619 31.7081 5.9281 31.362 5.65118L31.2874 5.58398C30.7501 6.10454 30.1734 6.5824 29.5625 7.01327C29.7733 7.13217 29.9764 7.25364 30.1795 7.37771Z" fill="url(#paint0_linear_2008_1043)"/>
<path d="M36.4216 1.56923C35.8304 0.972184 35.3034 0.695631 34.8201 0.713723C33.8895 0.749908 33.1028 1.74757 32.5399 2.39372C31.5476 3.51803 30.6813 4.6811 29.2982 5.34276C28.6614 5.63673 28.0051 5.88631 27.3342 6.08972C27.8154 6.20595 28.2832 6.37226 28.7301 6.58596C29.5067 6.14683 30.3194 5.77586 31.1594 5.47716C30.8706 5.23801 30.6117 4.96464 30.3882 4.66301C31.2728 4.83704 32.1229 5.15573 32.9049 5.60639L33.3111 5.84418C33.4576 5.75113 33.6016 5.65292 33.7507 5.55987C34.6019 5.02065 35.4843 4.53301 36.3933 4.09957C35.6842 4.82413 34.9331 5.50593 34.144 6.14141L33.9717 6.27581L34.0232 6.30941C34.4004 6.56812 34.7493 6.86614 35.0643 7.19851C34.6004 7.18373 34.1416 7.09654 33.7044 6.94005C33.5759 6.8987 33.4473 6.84442 33.3239 6.79273C32.8098 7.19593 32.2871 7.58965 31.7558 7.9739C31.6247 8.06953 31.4987 8.15999 31.3548 8.25304C31.3856 8.27888 31.4216 8.30214 31.4525 8.33057C31.8711 8.67829 32.2435 9.07875 32.5604 9.52208C31.9093 9.31794 31.2806 9.04775 30.6838 8.71568C30.0129 9.17057 29.3265 9.6022 28.6273 10.008C29.0071 10.4126 29.3329 10.8653 29.5964 11.3546C29.0992 11.1245 28.6219 10.853 28.1697 10.543C28.0951 10.4939 28.0257 10.4396 27.9538 10.3905C27.5116 10.649 27.0643 10.8687 26.6041 11.0909C26.9255 10.7601 27.2571 10.4448 27.5939 10.1372C27.3522 9.95888 27.1157 9.77796 26.8792 9.58928C26.6427 9.4006 26.4242 9.19901 26.2005 8.99741C25.65 9.26824 25.0793 9.49551 24.4936 9.67716C24.8793 9.27365 25.2943 8.89957 25.7352 8.55802C25.3264 8.15773 24.9547 7.72085 24.6247 7.25279C25.148 7.42798 25.6493 7.66391 26.1183 7.95581C26.1928 7.99974 26.2597 8.05144 26.3342 8.09796C26.8021 7.75162 27.2828 7.42854 27.7712 7.11839L28.1106 6.92196C27.8167 6.66306 27.5418 6.3832 27.2879 6.08455C26.3085 6.39987 25.3136 6.67642 24.3651 7.04861C23.2745 7.50156 22.2395 8.07915 21.2802 8.76996C18.4507 10.767 16.8621 14.1012 16.5142 18.7724C16.7993 17.8898 17.2238 17.059 17.7712 16.3119C18.2968 15.5941 18.9319 14.9643 19.653 14.4458C20.51 13.8418 21.4677 13.3971 22.4807 13.1328C24.6401 12.5435 26.9152 12.4168 29.0257 11.6776C31.0077 10.9824 32.7892 9.8219 34.4088 8.49599C36.0283 7.17008 37.0386 5.42806 37.1208 3.7739C37.1594 2.86154 36.91 2.05255 36.4216 1.56923Z" fill="url(#paint1_linear_2008_1043)"/>
<path d="M27.0381 8.59542C27.1769 8.6988 27.3183 8.80219 27.452 8.90816C27.709 9.13302 27.9661 9.36563 28.2232 9.60859C28.7664 9.14163 29.32 8.69019 29.8838 8.25425L29.6936 8.13794C29.4006 7.9441 29.1126 7.73733 28.8299 7.52539C28.6371 7.65462 28.4468 7.78385 28.2515 7.90533C27.8521 8.14656 27.4477 8.37659 27.0381 8.59542Z" fill="url(#paint2_linear_2008_1043)"/>
<path d="M8.43396 22.3423H2.7373L4.16147 21.6858V18.8582H14.2874V15.0898H-0.000488281V34.6114H8.43396C12.2592 34.6114 15.8684 33.3191 15.8684 28.473C15.8684 23.6268 12.2592 22.3423 8.43396 22.3423ZM8.45967 30.9283H2.7373L3.59848 30.5381C4.73473 29.2458 4.73473 27.695 3.59848 26.4027L2.74244 26.0124H8.45967C10.0946 26.0124 11.6242 26.3717 11.6242 28.4626C11.6242 30.5536 10.0946 30.9283 8.45967 30.9283Z" fill="white"/>
<path d="M27.956 14.6992C21.0794 14.6992 17.6372 19.5557 17.6372 24.849C17.6372 30.1423 21.0794 34.9988 27.956 34.9988C34.8326 34.9988 38.2747 30.1423 38.2747 24.849C38.2747 19.5557 34.8352 14.6992 27.956 14.6992ZM28.5858 31.0986L27.9611 32.4814L27.339 31.0986C23.6938 30.8169 21.8789 28.1108 21.8789 24.849C21.8789 21.5872 23.6938 18.8837 27.3236 18.5994L27.9457 17.2192L28.5704 18.5994C32.1693 18.8837 33.9843 21.6053 33.9843 24.849C33.9843 28.0927 32.1848 30.8169 28.5858 31.0986Z" fill="white"/>
<path d="M49.7762 22.3423H43.9742L45.5012 21.6496V18.8582H55.6297V15.0898H41.3521V34.6114H49.7762C53.6066 34.6114 57.2107 33.3191 57.2107 28.473C57.2107 23.6268 53.6066 22.3423 49.7762 22.3423ZM49.8071 30.9283H43.9742L45.0153 30.4528C46.0436 29.2096 46.0436 27.7364 45.0153 26.4932L43.9742 26.0228H49.8071C51.4472 26.0228 52.9716 26.382 52.9716 28.473C52.9716 30.5639 51.4472 30.9283 49.8071 30.9283Z" fill="white"/>
<path d="M67.3854 15.0898H60.0615V34.6114H64.2286V28.8865L62.6862 28.1835H67.3777C72.0718 28.1835 75.7556 26.6767 75.7556 21.6341C75.7556 16.5915 72.0795 15.0898 67.3854 15.0898ZM67.5782 24.5185H62.6939L63.6913 24.0559C64.8276 22.5051 64.8276 20.7734 63.6913 19.2356L62.6939 18.7729H67.5782C69.7222 18.7729 71.5217 19.3312 71.5217 21.6418C71.5217 23.9525 69.7222 24.5185 67.5782 24.5185Z" fill="white"/>
<path d="M85.884 21.51L81.1925 21.4945L82.7349 20.7889V15.0898H78.5601V34.6114H85.884C90.5703 34.6114 94.2593 33.1046 94.2593 28.0568C94.2593 23.0091 90.5703 21.5307 85.884 21.51ZM86.0742 30.9283H81.1899L82.1873 30.4631C83.3236 28.9279 83.3236 27.1884 82.1873 25.6454L81.1899 25.1802H86.0742C88.213 25.1802 90.0176 25.772 90.0176 28.0568C90.0176 30.3416 88.213 30.9283 86.0742 30.9283Z" fill="white"/>
<path d="M99.9997 15.0898H95.8403V34.6088H99.9997V15.0898Z" fill="white"/>
<defs>
<linearGradient id="paint0_linear_2008_1043" x1="29.5625" y1="5.58398" x2="32.4622" y2="5.58398" gradientUnits="userSpaceOnUse">
<stop stop-color="#FF9C45"/>
<stop offset="1" stop-color="#FF5D18"/>
</linearGradient>
<linearGradient id="paint1_linear_2008_1043" x1="16.5142" y1="0.712891" x2="37.1247" y2="0.712891" gradientUnits="userSpaceOnUse">
<stop stop-color="#FF9C45"/>
<stop offset="1" stop-color="#FF5D18"/>
</linearGradient>
<linearGradient id="paint2_linear_2008_1043" x1="27.0381" y1="7.52539" x2="29.8838" y2="7.52539" gradientUnits="userSpaceOnUse">
<stop stop-color="#FF9C45"/>
<stop offset="1" stop-color="#FF5D18"/>
</linearGradient>
</defs>
</svg>
