<svg width="1820" height="840" viewBox="0 0 1820 840" fill="none" xmlns="http://www.w3.org/2000/svg">
    <path
        d="M0 10C0 4.47715 3.27177 0 7.30769 0H910H1813.15C1814.67 0 1816.15 0.50777 1817.36 1.44303V1.44303C1819.02 2.74089 1820 4.73645 1820 6.85043V170V410C1820 415.523 1816.73 420 1812.69 420H1609.46C1608.91 420 1608.46 420.448 1608.46 421V421C1608.46 421.552 1608.91 422 1609.46 422H1812.69C1816.73 422 1820 426.477 1820 432V830C1820 835.523 1816.73 840 1812.69 840H7.30768C3.27175 840 0 835.523 0 830V432C0 426.477 3.27177 422 7.30769 422H210.538C211.091 422 211.538 421.552 211.538 421V421C211.538 420.448 211.091 420 210.538 420H7.30768C3.27175 420 0 415.523 0 410V10Z"
        fill="black" />
</svg>