<svg width="50" height="50" viewBox="0 0 50 50" fill="none" xmlns="http://www.w3.org/2000/svg">
<path d="M50 5.14711V2.20593H34.8757L3.99333 21.3236H0V24.2648H2.94118V38.9706H0V47.7942H50V21.3236H47.0588V5.14711H50ZM30.8824 21.3236V27.2059H26.4706V10.8683L33.8235 6.31642V21.3236H30.8824ZM20.5882 27.2059V33.0883H16.1765V17.2408L23.5294 12.689V27.2059H20.5882ZM5.88235 23.6134L13.2353 19.0615V33.0883H10.2941V38.9706H5.88235V23.6134ZM47.0588 44.853H2.94118V41.9118H13.2353V36.0295H23.5294V30.1471H33.8235V24.2648H47.0588V44.853ZM44.1176 21.3236H36.7647V5.14711H44.1176V21.3236Z" fill="#121212"/>
</svg>
