<svg width="50" height="50" viewBox="0 0 50 50" fill="none" xmlns="http://www.w3.org/2000/svg">
<g clip-path="url(#clip0_85_2018)">
<path d="M50 8.64531V0H41.3547V2.85781H8.64531V0H0V8.64531H2.85781V41.3546H0V50H8.64531V47.1422H41.3546V50H50V41.3547H47.1422V8.64531H50ZM5.71562 47.0703H2.92969V44.2844H5.71562V47.0703ZM5.71562 5.71562H2.92969V2.92969H5.71562V5.71562ZM44.2126 41.3547H41.3546V44.2126H8.64531V41.3547H5.7875V8.64531H8.64541V5.7875H41.3547V8.64541H44.2126V41.3547ZM47.0703 47.0703H44.2844V44.2844H47.0703V47.0703ZM47.0703 5.71562H44.2844V2.92969H47.0703V5.71562Z" fill="#121212"/>
<path d="M24.9768 14.4325L11.6865 25.2917L13.5402 27.5602L16.2011 25.3861V35.1405H21.0838H28.9154H33.7982V25.4302L36.4582 27.6052L38.3127 25.3372L24.9768 14.4325ZM25.9857 32.2109H24.0135V29.5904H25.9857V32.2109ZM30.8686 32.2109H28.9154V26.6607H21.0839V32.2109H19.1309V22.9924L24.976 18.2164L30.8686 23.0347V32.2109Z" fill="url(#paint0_linear_85_2018)"/>
</g>
<defs>
<linearGradient id="paint0_linear_85_2018" x1="64.1883" y1="24.7865" x2="11.6865" y2="24.7865" gradientUnits="userSpaceOnUse">
<stop stop-color="#7EBA47"/>
<stop offset="1" stop-color="#4C7E3A"/>
</linearGradient>
<clipPath id="clip0_85_2018">
<rect width="50" height="50" fill="white"/>
</clipPath>
</defs>
</svg>
