<svg width="66" height="50" viewBox="0 0 66 50" fill="none" xmlns="http://www.w3.org/2000/svg">
<path d="M15.5332 21.3893C15.5332 24.5728 18.1354 27.1628 21.334 27.1628C24.5325 27.1628 27.1348 24.5728 27.1348 21.3893C27.1348 18.2057 24.5325 15.6157 21.334 15.6157C18.1354 15.6157 15.5332 18.2057 15.5332 21.3893ZM23.2676 21.3893C23.2676 22.4504 22.4002 23.3138 21.334 23.3138C20.2678 23.3138 19.4004 22.4504 19.4004 21.3893C19.4004 20.3281 20.2678 19.4647 21.334 19.4647C22.4002 19.4647 23.2676 20.3281 23.2676 21.3893Z" fill="url(#paint0_linear_64_796)"/>
<path d="M54.334 35.5831V32.3531C56.5846 31.5587 58.2012 29.4195 58.2012 26.9106V15.5682C58.2012 12.3846 55.5989 9.79462 52.4004 9.79462C49.2018 9.79462 46.5996 12.3846 46.5996 15.5682V26.9106C46.5996 29.4195 48.2162 31.5587 50.4668 32.3531V35.5831H42.668V19.5643L21.334 0L13.8896 6.82689V4.14373H2.28809V17.466L0 19.5643L0.000128906 50H66V35.5831H54.334ZM50.4668 15.5682C50.4668 14.507 51.3342 13.6436 52.4004 13.6436C53.4666 13.6436 54.334 14.507 54.334 15.5682V26.9106C54.334 27.9718 53.4666 28.8351 52.4004 28.8351C51.3342 28.8351 50.4668 27.9718 50.4668 26.9106V15.5682ZM6.15527 7.99276H10.0225V10.3731L6.15527 13.9195V7.99276ZM24.5818 46.1508H18.0861V36.5624H24.5818V46.1508ZM38.8008 46.1508H28.449V32.7134H14.219V46.1508H3.86732L3.86719 21.2516L21.334 5.23365L38.8008 21.2516V46.1508ZM54.3984 39.4321V46.1508H50.5312V39.4321H54.3984ZM42.668 39.4321H46.6641V46.1508H42.668V39.4321ZM62.1328 46.1508H58.2656V39.4321H62.1328V46.1508Z" fill="#121212"/>
<defs>
<linearGradient id="paint0_linear_64_796" x1="38.4093" y1="21.3892" x2="15.5332" y2="21.3892" gradientUnits="userSpaceOnUse">
<stop stop-color="#7EBA47"/>
<stop offset="1" stop-color="#4C7E3A"/>
</linearGradient>
</defs>
</svg>
