<svg width="50" height="46" viewBox="0 0 50 46" fill="none" xmlns="http://www.w3.org/2000/svg">
<path d="M5.79395 46H37.1744V37.5947H49.9998V5.9054H5.79395V46ZM8.72363 8.86043H47.0701V34.6396H34.2447V43.0449H8.72363V8.86043Z" fill="#121212"/>
<path d="M5.79395 0H49.9998V2.95503H5.79395V0Z" fill="#121212"/>
<path d="M0 5.9054H2.92969V46H0V5.9054Z" fill="#121212"/>
<path fill-rule="evenodd" clip-rule="evenodd" d="M33.924 19.8871C33.924 20.3992 33.7336 20.8475 32.9085 21.5774L32.21 22.1795H34.0891V23.639H29.4424V22.4739L31.4612 20.732C31.8419 20.4119 31.9182 20.2072 31.9182 20.0406C31.9182 19.8359 31.766 19.682 31.4104 19.682C31.0168 19.682 30.7246 19.8613 30.5598 20.1687L29.0869 19.4642C29.455 18.7343 30.2805 18.1968 31.5882 18.1968C32.9848 18.1968 33.924 18.8497 33.924 19.8871ZM22.9681 23.6391L25.7868 18.8625H28.2495L28.2751 27.8265H25.5453L25.5201 23.7414L23.5903 27.0197H22.27L20.3401 23.8823V27.8265H17.6104V18.8625H20.0735L22.9681 23.6391Z" fill="url(#paint0_linear_65_1097)"/>
<defs>
<linearGradient id="paint0_linear_65_1097" x1="50.1034" y1="23.0116" x2="17.6104" y2="23.0116" gradientUnits="userSpaceOnUse">
<stop stop-color="#7EBA47"/>
<stop offset="1" stop-color="#4C7E3A"/>
</linearGradient>
</defs>
</svg>
