<svg width="50" height="50" viewBox="0 0 50 50" fill="none" xmlns="http://www.w3.org/2000/svg">
<path d="M25.0002 0L2.09375 10.412V39.5879L25.0003 49.9999L47.9068 39.5879V10.412L25.0002 0ZM44.9595 36.3506L26.4738 27.9481V3.90714L44.9595 12.3098V36.3506ZM23.5266 3.90714V27.9481L19.8917 29.6003V11.9095L8.6922 16.9759V34.6909L5.04098 36.3506V12.3099L23.5266 3.90714ZM16.9444 30.9399L11.6394 33.3512V18.8774L16.9444 16.4775V30.9399ZM7.1285 38.639L25.0002 30.5156L42.872 38.639L25.0002 46.7627L7.1285 38.639Z" fill="#121212"/>
<path d="M41.9912 30.7107V15.2518L29.4414 9.54736V25.0063L41.9912 30.7107ZM32.3886 14.1243L39.044 17.1495V26.1336L32.3886 23.1083V14.1243Z" fill="url(#paint0_linear_85_2054)"/>
<path d="M29.2314 35.1114C28.078 34.4193 26.5752 34.0381 24.9999 34.0381C23.4246 34.0381 21.9218 34.4193 20.7684 35.1114C19.3994 35.9327 18.6143 37.1529 18.6143 38.4589C18.6143 39.7649 19.3994 40.9852 20.7684 41.8065C21.9218 42.4986 23.4246 42.8798 24.9999 42.8798C26.5752 42.8798 28.078 42.4986 29.2314 41.8065C30.6004 40.9852 31.3856 39.7649 31.3856 38.4589C31.3856 37.1529 30.6003 35.9328 29.2314 35.1114ZM24.9998 39.9326C22.8668 39.9326 21.5614 38.9785 21.5614 38.459C21.5614 37.9395 22.8668 36.9854 24.9998 36.9854C27.1328 36.9854 28.4383 37.9395 28.4383 38.459C28.4383 38.9785 27.1328 39.9326 24.9998 39.9326Z" fill="#121212"/>
<defs>
<linearGradient id="paint0_linear_85_2054" x1="54.1872" y1="20.129" x2="29.4414" y2="20.129" gradientUnits="userSpaceOnUse">
<stop stop-color="#7EBA47"/>
<stop offset="1" stop-color="#4C7E3A"/>
</linearGradient>
</defs>
</svg>
