<svg width="50" height="50" viewBox="0 0 50 50" fill="none" xmlns="http://www.w3.org/2000/svg">
<g id="g1827">
<g id="g1829">
<g id="Clip path group">
<mask id="mask0_65_1114" style="mask-type:luminance" maskUnits="userSpaceOnUse" x="0" y="0" width="50" height="50">
<g id="clipPath1835">
<path id="path1833" d="M0 3.8147e-06H50V50H0V3.8147e-06Z" fill="white"/>
</g>
</mask>
<g mask="url(#mask0_65_1114)">
<g id="g1831">
<path id="path1837" d="M48.5352 38.1836H1.46484V3.02734H48.5352V38.1836Z" stroke="#121212" stroke-width="2.92969" stroke-miterlimit="10"/>
<g id="g1839">
<path id="path1841" d="M22.0703 46.9727V38.1836" stroke="#121212" stroke-width="2.92969" stroke-miterlimit="10"/>
</g>
<g id="g1843">
<path id="path1845" d="M27.9297 38.1836V46.9727" stroke="#121212" stroke-width="2.92969" stroke-miterlimit="10"/>
</g>
<g id="g1847">
<path id="path1849" d="M14.7461 46.9727H35.2539" stroke="#121212" stroke-width="2.92969" stroke-miterlimit="10"/>
</g>
<g id="g1875">
<path id="Union" fill-rule="evenodd" clip-rule="evenodd" d="M21.2974 26.7767H23.7658V29.2452H16.3605V26.7767H18.8289V16.9029H14.3702L16.2971 22.6837L16.3605 22.8737V23.074C16.3605 25.1189 14.7027 26.7767 12.6578 26.7767C10.6129 26.7767 8.95508 25.1189 8.95508 23.074V22.8737L9.01841 22.6837L11.4869 15.2783L11.7682 14.4344H12.6578H18.8289V11.9659H21.2974V14.4344H27.4685H28.3581L28.6394 15.2783L31.1079 22.6837L31.1712 22.8737V23.074C31.1712 25.1189 29.5134 26.7767 27.4685 26.7767C25.4236 26.7767 23.7658 25.1189 23.7658 23.074V22.8737L23.8292 22.6837L25.7561 16.9029H21.2974V26.7767ZM11.4347 23.2408L12.6578 19.5716L13.8808 23.2408C13.7994 23.8435 13.2828 24.3082 12.6578 24.3082C12.0327 24.3082 11.5161 23.8435 11.4347 23.2408ZM27.4685 19.5716L28.6916 23.2408C28.6102 23.8435 28.0936 24.3082 27.4685 24.3082C26.8435 24.3082 26.3269 23.8435 26.2455 23.2408L27.4685 19.5716ZM36.1082 14.4344H33.6397V16.9029H36.1082V14.4344ZM38.5766 14.4344H41.0451V16.9029H38.5766V14.4344ZM41.0451 19.3713H33.6397V21.8398H41.0451V19.3713ZM33.6397 24.3082H41.0451V26.7767H33.6397V24.3082Z" fill="url(#paint0_linear_65_1114)"/>
</g>
</g>
</g>
</g>
</g>
</g>
<defs>
<linearGradient id="paint0_linear_65_1114" x1="72.2305" y1="20.6055" x2="8.95508" y2="20.6055" gradientUnits="userSpaceOnUse">
<stop stop-color="#7EBA47"/>
<stop offset="1" stop-color="#4C7E3A"/>
</linearGradient>
</defs>
</svg>
