<svg width="356" height="420" viewBox="0 0 356 420" fill="none" xmlns="http://www.w3.org/2000/svg">
<rect width="6" height="420" transform="matrix(-1 0 0 1 356 0)" fill="#EFE9E5"/>
<rect width="1.0001" height="20.0001" transform="matrix(-1 0 0 1 336 0)" fill="#ACACAC"/>
<rect width="6" height="30" transform="matrix(-1 0 0 1 321 0)" fill="#EFE9E5"/>
<rect width="1.0001" height="20.0001" transform="matrix(-1 0 0 1 301 0)" fill="#ACACAC"/>
<rect width="6" height="30" transform="matrix(-1 0 0 1 286 0)" fill="#EFE9E5"/>
<rect width="1.0001" height="20.0001" transform="matrix(-1 0 0 1 266 0)" fill="#ACACAC"/>
<rect width="6" height="30" transform="matrix(-1 0 0 1 251 0)" fill="#EFE9E5"/>
<rect width="1.0001" height="20.0001" transform="matrix(-1 0 0 1 231 0)" fill="#ACACAC"/>
<rect width="6" height="30" transform="matrix(-1 0 0 1 216 0)" fill="#EFE9E5"/>
<rect width="1.0001" height="20.0001" transform="matrix(-1 0 0 1 196 0)" fill="#ACACAC"/>
<rect width="6" height="30" transform="matrix(-1 0 0 1 180.999 0)" fill="#EFE9E5"/>
<rect width="1.0001" height="20.0001" transform="matrix(-1 0 0 1 160.999 0)" fill="#ACACAC"/>
<rect width="6" height="30" transform="matrix(-1 0 0 1 145.999 0)" fill="#EFE9E5"/>
<rect width="1.0001" height="20.0001" transform="matrix(-1 0 0 1 125.999 0)" fill="#ACACAC"/>
<rect width="6" height="30" transform="matrix(-1 0 0 1 110.999 0)" fill="#EFE9E5"/>
<rect width="1.0001" height="20.0001" transform="matrix(-1 0 0 1 90.999 0)" fill="#ACACAC"/>
<rect width="6" height="30" transform="matrix(-1 0 0 1 75.999 0)" fill="#EFE9E5"/>
<rect width="1.0001" height="20.0001" transform="matrix(-1 0 0 1 55.999 0)" fill="#ACACAC"/>
<rect width="6" height="30" transform="matrix(-1 0 0 1 40.999 0)" fill="#EFE9E5"/>
<rect width="1.0001" height="20.0001" transform="matrix(-1 0 0 1 20.999 0)" fill="#ACACAC"/>
<rect width="6" height="140" transform="matrix(-1 0 0 1 5.99902 0)" fill="#EFE9E5"/>
<g clip-path="url(#clip0_2025_2283)">
<mask id="mask0_2025_2283" style="mask-type:luminance" maskUnits="userSpaceOnUse" x="30" y="90" width="51" height="51">
<path d="M80.334 90.333H30.334V140.333H80.334V90.333Z" fill="white"/>
</mask>
<g mask="url(#mask0_2025_2283)">
<mask id="mask1_2025_2283" style="mask-type:luminance" maskUnits="userSpaceOnUse" x="30" y="90" width="51" height="51">
<path d="M30.335 90.3325H80.335V140.333H30.335V90.3325Z" fill="white"/>
</mask>
<g mask="url(#mask1_2025_2283)">
<path d="M60.0505 123.483C60.0505 131.273 53.7354 137.588 45.9451 137.588C38.155 137.588 31.8398 131.273 31.8398 123.483C31.8398 115.693 38.155 109.378 45.9451 109.378C53.7354 109.378 60.0505 115.693 60.0505 123.483Z" stroke="#121212" stroke-width="2.92969" stroke-miterlimit="10"/>
<path d="M62.4074 119.399C55.661 123.294 47.0343 120.983 43.1392 114.237C39.2441 107.49 41.5556 98.8634 48.3021 94.9683C55.0486 91.0733 63.6751 93.3847 67.5703 100.131C71.4654 106.878 69.1539 115.504 62.4074 119.399Z" stroke="#121212" stroke-width="2.92969" stroke-miterlimit="10"/>
<path d="M78.8708 123.483C78.8708 131.273 72.5557 137.588 64.7655 137.588C56.9753 137.588 50.6602 131.273 50.6602 123.483C50.6602 115.693 56.9753 109.378 64.7655 109.378C72.5557 109.378 78.8708 115.693 78.8708 123.483Z" stroke="url(#paint0_linear_2025_2283)" stroke-width="2.92969" stroke-miterlimit="10"/>
</g>
</g>
</g>
<defs>
<linearGradient id="paint0_linear_2025_2283" x1="106.286" y1="123.483" x2="50.6602" y2="123.483" gradientUnits="userSpaceOnUse">
<stop stop-color="#7EBA47"/>
<stop offset="1" stop-color="#4C7E3A"/>
</linearGradient>
<clipPath id="clip0_2025_2283">
<rect width="50" height="50" fill="white" transform="translate(30.333 90.3335)"/>
</clipPath>
</defs>
</svg>
