<svg width="791" height="83" viewBox="0 0 791 83" fill="none" xmlns="http://www.w3.org/2000/svg">
<rect y="53" width="6" height="30" fill="white"/>
<rect x="20" y="62.9999" width="1.0001" height="20.0001" fill="#ACACAC"/>
<rect x="35" y="53" width="6" height="30" fill="white"/>
<rect x="55" y="62.9999" width="1.0001" height="20.0001" fill="#ACACAC"/>
<rect x="70" y="53" width="6" height="30" fill="white"/>
<rect x="90" y="62.9999" width="1.0001" height="20.0001" fill="#ACACAC"/>
<rect x="105" y="53" width="6" height="30" fill="white"/>
<rect x="125" y="62.9999" width="1.0001" height="20.0001" fill="#ACACAC"/>
<rect x="140" y="53" width="6" height="30" fill="white"/>
<rect x="160" y="62.9999" width="1.0001" height="20.0001" fill="#ACACAC"/>
<rect x="175" y="53" width="6" height="30" fill="white"/>
<rect x="195" y="62.9999" width="1.0001" height="20.0001" fill="#ACACAC"/>
<rect x="210" y="53" width="6" height="30" fill="white"/>
<rect x="230" y="62.9999" width="1.0001" height="20.0001" fill="#ACACAC"/>
<rect x="245" y="53" width="6" height="30" fill="white"/>
<rect x="265.001" y="62.9999" width="1.0001" height="20.0001" fill="#ACACAC"/>
<rect x="280.001" y="53" width="6" height="30" fill="white"/>
<rect x="300.001" y="62.9999" width="1.0001" height="20.0001" fill="#ACACAC"/>
<rect x="315.001" y="53" width="6" height="30" fill="white"/>
<rect x="335.001" y="62.9999" width="1.0001" height="20.0001" fill="#ACACAC"/>
<rect x="350.001" y="53" width="6" height="30" fill="white"/>
<rect x="370.001" y="62.9999" width="1.0001" height="20.0001" fill="#ACACAC"/>
<rect x="385.001" y="53" width="6" height="30" fill="white"/>
<rect x="405.001" y="62.9999" width="1.0001" height="20.0001" fill="#ACACAC"/>
<rect x="420.001" y="53" width="6" height="30" fill="white"/>
<rect x="440.001" y="62.9999" width="1.0001" height="20.0001" fill="#ACACAC"/>
<rect x="455.001" y="53" width="6" height="30" fill="white"/>
<rect x="475.001" y="62.9999" width="1.0001" height="20.0001" fill="#ACACAC"/>
<rect x="490.001" y="53" width="6" height="30" fill="white"/>
<rect x="510.001" y="62.9999" width="1.0001" height="20.0001" fill="#ACACAC"/>
<rect x="525.001" y="53" width="6" height="30" fill="white"/>
<rect x="545.001" y="62.9999" width="1.0001" height="20.0001" fill="#ACACAC"/>
<rect x="560.001" y="53" width="6" height="30" fill="white"/>
<rect x="580.001" y="62.9999" width="1.0001" height="20.0001" fill="#ACACAC"/>
<rect x="595.002" y="53" width="6" height="30" fill="white"/>
<rect x="615.002" y="62.9999" width="1.0001" height="20.0001" fill="#ACACAC"/>
<rect x="630.002" y="53" width="6" height="30" fill="white"/>
<rect x="650.002" y="62.9999" width="1.0001" height="20.0001" fill="#ACACAC"/>
<rect x="665.002" y="53" width="6" height="30" fill="white"/>
<rect x="685.002" y="62.9999" width="1.0001" height="20.0001" fill="#ACACAC"/>
<rect x="700.002" y="53" width="6" height="30" fill="white"/>
<rect x="720.002" y="62.9999" width="1.0001" height="20.0001" fill="#ACACAC"/>
<rect x="735.002" y="39" width="6" height="44" fill="white"/>
<rect x="755.002" y="62.9999" width="1.0001" height="20.0001" fill="#ACACAC"/>
<rect x="770.002" width="6" height="83" fill="white"/>
<rect x="790.002" y="62.9999" width="1.0001" height="20.0001" fill="#ACACAC"/>
</svg>
