<svg width="286" height="70" viewBox="0 0 286 70" fill="none" xmlns="http://www.w3.org/2000/svg">
<path d="M86 24.4472V0.34436H92.6884L99.3767 15.3221H100.257L106.949 0.34436H113.458V24.4472H109.415V7.57484L109.763 4.30222H109.415L102.907 18.9392H96.5628L90.0544 4.30222H89.7021L90.0544 7.57484V24.4472H86Z" fill="#121212"/>
<path d="M119.395 22.2606C117.787 20.5757 116.983 18.3777 116.983 15.6667C116.983 12.9558 117.787 10.7578 119.395 9.07279C120.157 8.25227 121.091 7.60159 122.133 7.16486C123.174 6.72813 124.3 6.51555 125.433 6.54156C126.937 6.53527 128.404 6.99397 129.625 7.85211C130.16 8.21479 130.645 8.64259 131.068 9.1252H131.245V6.87854H134.939V24.4399H131.245V22.0322H131.068C130.663 22.5621 130.176 23.027 129.625 23.4102C128.42 24.3062 126.947 24.7891 125.433 24.7844C124.3 24.8113 123.175 24.5999 122.134 24.1645C121.092 23.7291 120.158 23.0798 119.395 22.2606ZM122.263 11.3269C121.324 12.3379 120.854 13.7845 120.854 15.6667C120.854 17.5489 121.324 18.9955 122.263 20.0065C123.205 21.005 124.496 21.5043 126.137 21.5043C126.834 21.5327 127.528 21.4098 128.17 21.1443C128.812 20.8788 129.386 20.4775 129.851 19.9691C130.777 18.9506 131.242 17.5102 131.245 15.648C131.247 13.7858 130.783 12.3454 129.851 11.3269C129.386 10.819 128.812 10.4182 128.17 10.1534C127.528 9.88854 126.834 9.76631 126.137 9.79546C124.494 9.80794 123.202 10.3184 122.263 11.3269Z" fill="#121212"/>
<path d="M140.678 22.212C138.966 20.4895 138.109 18.3078 138.109 15.6667C138.109 13.0257 138.966 10.8451 140.678 9.1252C141.504 8.28241 142.501 7.61734 143.604 7.17248C144.708 6.72761 145.894 6.51274 147.087 6.54157C148.429 6.50893 149.759 6.78106 150.975 7.33657C152.191 7.89208 153.258 8.71583 154.093 9.74304C154.845 10.6819 155.396 11.7592 155.713 12.9108H151.842C151.672 12.3294 151.358 11.7982 150.927 11.3644C150.013 10.3309 148.737 9.81419 147.099 9.81419C146.407 9.80256 145.72 9.94167 145.09 10.2214C144.46 10.5012 143.901 10.9147 143.454 11.4318C142.482 12.5102 141.995 13.9218 141.995 15.6667C141.995 17.4116 142.482 18.8233 143.454 19.9017C143.9 20.4199 144.459 20.8343 145.089 21.1148C145.72 21.3953 146.406 21.5347 147.099 21.523C148.791 21.523 150.117 21.0063 151.076 19.9728C151.494 19.5213 151.818 18.9949 152.03 18.4226H155.724C155.289 19.8953 154.469 21.2317 153.344 22.2998C152.22 23.3678 150.83 24.1308 149.313 24.5134C147.795 24.8959 146.201 24.8849 144.689 24.4813C143.177 24.0777 141.799 23.2955 140.69 22.212H140.678Z" fill="#121212"/>
<path d="M156.77 10.1586V6.88599H172.44V10.1586H166.452V24.4473H162.757V10.1586H156.77Z" fill="#121212"/>
<path d="M176.329 22.1592C174.624 20.4099 173.672 18.0855 173.672 15.6683C173.672 13.2511 174.624 10.9267 176.329 9.17732C178.052 7.49213 180.389 6.54541 182.826 6.54541C185.263 6.54541 187.6 7.49213 189.323 9.17732C190.192 10.0268 190.875 11.0399 191.332 12.1554C191.789 13.2708 192.009 14.4652 191.98 15.6664V16.8721H177.367C177.58 18.1975 178.266 19.4063 179.304 20.2833C180.287 21.0988 181.538 21.539 182.826 21.5227C184.47 21.5227 185.784 21.1208 186.77 20.317C187.221 19.983 187.609 19.5751 187.918 19.1113H191.819C191.374 20.1631 190.743 21.1302 189.955 21.9683C189.029 22.8892 187.921 23.6149 186.697 24.1004C185.474 24.586 184.162 24.8212 182.842 24.7916C181.629 24.8168 180.424 24.5959 179.303 24.1428C178.183 23.6898 177.17 23.0143 176.329 22.1592ZM177.543 13.944H188.106C187.905 12.8122 187.316 11.7809 186.437 11.0196C185.528 10.2158 184.324 9.81387 182.826 9.81387C181.601 9.79946 180.408 10.1959 179.446 10.9372C178.46 11.6811 177.784 12.7495 177.543 13.944Z" fill="#121212"/>
<path d="M195.15 30.9925V6.88587H198.845V9.13252H199.021C199.445 8.64991 199.93 8.22211 200.464 7.85943C201.685 7.00083 203.153 6.54208 204.657 6.54888C205.79 6.52288 206.915 6.73543 207.957 7.17216C208.998 7.60889 209.932 8.25957 210.694 9.08009C212.302 10.7676 213.106 12.9656 213.106 15.674C213.106 18.3825 212.302 20.5805 210.694 22.268C209.932 23.0885 208.998 23.7392 207.957 24.1759C206.915 24.6126 205.79 24.8252 204.657 24.7992C203.157 24.8154 201.691 24.37 200.464 23.5261C199.925 23.1569 199.439 22.7172 199.021 22.2193H198.845V31L195.15 30.9925ZM200.242 11.3455C199.313 12.369 198.849 13.8093 198.849 15.6665C198.849 17.5238 199.313 18.9641 200.242 19.9876C200.707 20.496 201.281 20.8974 201.923 21.1629C202.565 21.4283 203.259 21.5513 203.956 21.5228C205.6 21.5228 206.891 21.0236 207.83 20.0251C208.77 19.0265 209.238 17.5799 209.235 15.6853C209.235 13.8056 208.767 12.359 207.83 11.3455C206.894 10.332 205.602 9.83274 203.956 9.84772C203.262 9.81436 202.57 9.93131 201.928 10.1902C201.286 10.4492 200.71 10.8437 200.242 11.3455Z" fill="#121212"/>
<path d="M216.628 24.4472V0.34436H223.316L230.005 15.3221H230.87L237.562 0.34436H244.071V24.4472H240.058V7.57484L240.41 4.30222H240.058L233.55 18.9392H227.191L220.682 4.30222H220.33L220.682 7.57484V24.4472H216.628Z" fill="#121212"/>
<path d="M250.013 22.2606C248.405 20.5757 247.601 18.3777 247.601 15.6667C247.601 12.9558 248.405 10.7578 250.013 9.07279C250.775 8.25227 251.708 7.60159 252.75 7.16486C253.791 6.72813 254.917 6.51555 256.05 6.54156C257.56 6.53079 259.035 6.98973 260.261 7.85211C260.796 8.21479 261.281 8.64259 261.705 9.1252H261.881V6.87854H265.575V24.4399H261.881V22.0322H261.705C261.3 22.5621 260.813 23.027 260.261 23.4102C259.051 24.3101 257.57 24.7932 256.05 24.7844C254.918 24.8113 253.792 24.5999 252.751 24.1645C251.709 23.7291 250.775 23.0798 250.013 22.2606ZM252.884 11.3269C251.942 12.3379 251.472 13.7845 251.475 15.6667C251.478 17.5489 251.947 18.9955 252.884 20.0065C253.823 21.005 255.113 21.5043 256.754 21.5043C257.451 21.5327 258.145 21.4098 258.787 21.1443C259.43 20.8788 260.004 20.4775 260.468 19.9691C261.397 18.9506 261.862 17.5102 261.862 15.648C261.862 13.7858 261.397 12.3454 260.468 11.3269C260.003 10.819 259.429 10.4182 258.787 10.1534C258.145 9.88854 257.451 9.76631 256.754 9.79546C255.121 9.80794 253.835 10.3184 252.895 11.3269H252.884Z" fill="#121212"/>
<path d="M269.794 24.4474V6.886H273.492V18.6135L273.454 18.958H273.806L281.942 6.90472H286V24.4661H282.305V12.7385L282.34 12.3941H281.988L273.856 24.4474H269.794ZM272.436 0H275.429C275.429 1.26312 276.25 1.89468 277.891 1.89468C279.532 1.89468 280.354 1.26312 280.357 0H283.351C283.376 0.609109 283.265 1.21631 283.024 1.7786C282.783 2.34089 282.419 2.84453 281.957 3.25391C281.031 4.0652 279.675 4.4721 277.891 4.47459C276.107 4.47709 274.752 4.07269 273.825 3.2614C273.364 2.85054 273 2.34544 272.76 1.78187C272.519 1.2183 272.409 0.609998 272.436 0Z" fill="#121212"/>
<path d="M86 43.1043V38.2892H88.3924C88.7908 38.2742 89.1805 38.4073 89.4849 38.6625C89.6148 38.7705 89.7185 38.9062 89.7883 39.0593C89.858 39.2124 89.8921 39.3792 89.8881 39.5471C89.8961 39.7023 89.8661 39.857 89.8005 39.9981C89.7348 40.1392 89.6356 40.2624 89.5113 40.3571C89.3981 40.4413 89.2705 40.5045 89.1346 40.5437V40.5773C89.2957 40.611 89.449 40.6743 89.5867 40.764C89.7399 40.877 89.8618 41.0266 89.9409 41.1989C90.0199 41.3713 90.0536 41.5606 90.0388 41.7494C90.0442 41.9373 90.0071 42.124 89.9302 42.2958C89.8533 42.4676 89.7385 42.6202 89.5942 42.7422C89.2335 43.0122 88.7869 43.1447 88.3358 43.1155L86 43.1043ZM86.7987 40.2489H88.3584C88.5454 40.2621 88.7304 40.2032 88.8746 40.0846C88.9349 40.0246 88.9818 39.9528 89.0123 39.8737C89.0428 39.7946 89.0562 39.7101 89.0517 39.6255C89.0547 39.5467 89.0405 39.4682 89.0099 39.3953C88.9793 39.3225 88.9332 39.2571 88.8746 39.2037C88.728 39.0901 88.5441 39.0343 88.3584 39.047H86.7987V40.2489ZM86.7987 42.3466H88.3245C88.9273 42.3466 89.225 42.1189 89.225 41.6598C89.225 41.2007 88.9273 40.973 88.3245 40.973H86.7987V42.3466Z" fill="#121212"/>
<path d="M91.9033 43.1041L93.1541 38.2891H95.1321L96.4168 43.1041H95.5842L95.2489 41.8649H93.0147L92.702 43.1041H91.9033ZM93.2219 41.1109H95.0567L94.5067 39.0468H93.7532L93.2219 41.1109Z" fill="#121212"/>
<path d="M98.3916 43.1041V38.2891H99.1903V42.3464H100.946V38.2891H101.745V42.3464H103.515V38.2891H104.337V43.1041H98.3916Z" fill="#121212"/>
<path d="M106.691 43.1041V38.2891H107.49V41.4879L107.419 42.1075H107.49L109.675 38.2891H110.741V43.1041H109.943V39.9053L110.011 39.2857H109.943L107.754 43.1041H106.691Z" fill="#121212"/>
<path d="M116.445 43.1041V38.2891H120.439V43.1041H119.64V39.0468H117.244V43.1041H116.445Z" fill="#121212"/>
<path d="M122.797 43.1041V38.289H124.914C125.411 38.2672 125.897 38.4341 126.274 38.7556C126.437 38.9012 126.567 39.0788 126.655 39.2772C126.744 39.4755 126.79 39.6901 126.79 39.9071C126.79 40.1241 126.744 40.3387 126.655 40.537C126.567 40.7353 126.437 40.913 126.274 41.0586C125.897 41.3791 125.411 41.5447 124.914 41.5215H123.596V43.1041H122.797ZM123.596 40.7675H124.914C125.193 40.7863 125.469 40.704 125.69 40.536C125.775 40.4543 125.843 40.3565 125.889 40.2485C125.935 40.1405 125.959 40.0244 125.959 39.9071C125.959 39.7898 125.935 39.6737 125.889 39.5657C125.843 39.4577 125.775 39.3599 125.69 39.2782C125.469 39.1086 125.193 39.0262 124.914 39.0467H123.596V40.7675Z" fill="#121212"/>
<path d="M128.354 43.1041L129.601 38.2891H131.583L132.867 43.1041H132.035L131.7 41.8649H129.465L129.153 43.1041H128.354ZM129.673 41.1109H131.504L130.957 39.0468H130.204L129.673 41.1109Z" fill="#121212"/>
<path d="M134.853 43.1041V38.289H137.249C137.646 38.2738 138.035 38.407 138.338 38.6623C138.468 38.7703 138.572 38.9059 138.641 39.0591C138.711 39.2122 138.745 39.3789 138.741 39.5469C138.749 39.702 138.719 39.8568 138.653 39.9979C138.588 40.139 138.489 40.2622 138.364 40.3569C138.251 40.441 138.123 40.5043 137.988 40.5435V40.5771C138.149 40.6101 138.302 40.6735 138.44 40.7637C138.593 40.8767 138.715 41.0264 138.794 41.1987C138.873 41.371 138.907 41.5604 138.892 41.7491C138.898 41.9371 138.861 42.1241 138.784 42.2961C138.707 42.468 138.592 42.6205 138.447 42.742C138.087 43.012 137.64 43.1445 137.189 43.1153L134.853 43.1041ZM135.652 40.2486H137.211C137.398 40.2619 137.583 40.203 137.728 40.0844C137.789 40.0252 137.837 39.9535 137.868 39.8743C137.9 39.7951 137.913 39.7102 137.908 39.6253C137.912 39.5461 137.897 39.4671 137.866 39.3942C137.835 39.3212 137.787 39.2561 137.728 39.2035C137.581 39.0899 137.397 39.034 137.211 39.0467H135.644L135.652 40.2486ZM135.652 42.3464H137.159C137.762 42.3464 138.063 42.1187 138.063 41.6596C138.063 41.2005 137.762 40.9728 137.159 40.9728H135.652V42.3464Z" fill="#121212"/>
<path d="M141.13 43.1041V38.2891H141.929V40.286H144.325V38.2891H145.12V43.1041H144.325V41.04H141.929V43.1041H141.13Z" fill="#121212"/>
<path d="M146.996 38.2891H147.828L148.699 40.4913H149.546L150.413 38.2891H151.245L149.301 43.1041H148.454L149.207 41.2378H148.164L146.996 38.2891Z" fill="#121212"/>
<path d="M153.001 43.1041V38.2891H153.8V40.286H154.598L156.056 38.2891H156.995L155.292 40.5958L157.062 43.1041H156.09L154.632 41.04H153.8V43.1041H153.001Z" fill="#121212"/>
<path d="M158.965 43.1041V38.2891H159.764V41.4879L159.718 42.1075H159.786L161.979 38.2891H163.053V43.1041H162.254V39.9053L162.325 39.2857H162.254L160.069 43.1041H158.965Z" fill="#121212"/>
<path d="M169.262 42.5146C168.786 42.0274 168.521 41.3763 168.521 40.6987C168.521 40.0211 168.786 39.37 169.262 38.8828C169.765 38.4133 170.431 38.1519 171.123 38.1519C171.814 38.1519 172.48 38.4133 172.984 38.8828C173.459 39.37 173.725 40.0211 173.725 40.6987C173.725 41.3763 173.459 42.0274 172.984 42.5146C172.479 42.9825 171.814 43.2428 171.123 43.2428C170.432 43.2428 169.766 42.9825 169.262 42.5146ZM169.846 39.4054C169.528 39.7626 169.352 40.2225 169.352 40.6987C169.352 41.175 169.528 41.6348 169.846 41.9921C170.193 42.3089 170.648 42.4848 171.121 42.4848C171.593 42.4848 172.048 42.3089 172.396 41.9921C172.716 41.6359 172.893 41.1756 172.893 40.6987C172.893 40.2218 172.716 39.7615 172.396 39.4054C172.048 39.0885 171.593 38.9126 171.121 38.9126C170.648 38.9126 170.193 39.0885 169.846 39.4054Z" fill="#121212"/>
<path d="M175.881 43.1041V38.2891H176.672V42.3464H178.857V38.2891H179.656V42.3464H180.315V43.9999H179.562V43.1041H175.881Z" fill="#121212"/>
<path d="M182.372 43.1041V38.2891H185.88V39.0356H183.171V40.2748H185.356V41.0213H183.171V42.3277H185.88V43.0743L182.372 43.1041Z" fill="#121212"/>
<path d="M187.997 43.1041V38.2891H188.796V40.286H191.188V38.2891H191.987V43.1041H191.188V41.04H188.796V43.1041H187.997Z" fill="#121212"/>
<path d="M194.176 39.8304C194.17 39.6179 194.213 39.4069 194.301 39.213C194.389 39.0192 194.52 38.8474 194.685 38.7107C195.069 38.3997 195.557 38.2426 196.052 38.2702H198.169V43.0853H197.371V41.3645H196.188L195.133 43.1039H194.195L195.325 41.2824C194.987 41.1945 194.685 41.0039 194.462 40.7375C194.262 40.4782 194.16 40.1568 194.176 39.8304ZM195.28 39.2593C195.193 39.3269 195.123 39.4138 195.076 39.513C195.029 39.6121 195.006 39.7209 195.009 39.8304C195.006 39.9399 195.029 40.0484 195.077 40.1475C195.124 40.2466 195.193 40.3336 195.28 40.4015C195.504 40.5611 195.777 40.6389 196.052 40.6217H197.371V39.0466H196.052C195.777 39.0294 195.504 39.1072 195.28 39.2668V39.2593Z" fill="#121212"/>
<path d="M200.113 39.0468V38.3003H204.103V39.0468H202.506V43.1042H201.711V39.0468H200.113Z" fill="#121212"/>
<path d="M209.035 43.1041V38.2891H209.826V40.286H212.222V38.2891H213.021V43.1041H212.222V41.04H209.826V43.1041H209.035Z" fill="#121212"/>
<path d="M215.006 43.1041L216.257 38.2891H218.235L219.52 43.1041H218.687L218.352 41.8649H216.118L215.805 43.1041H215.006ZM216.325 41.1109H218.16L217.61 39.0468H216.856L216.325 41.1109Z" fill="#121212"/>
<path d="M221.505 43.1041V38.2891H222.304V42.3464H224.075V38.2891H224.874V42.3464H226.644V38.2891H227.443V43.1041H221.505Z" fill="#121212"/>
<path d="M229.794 43.1041V38.2891H233.301V39.0356H230.593V40.2748H232.782V41.0213H230.593V42.3277H233.301V43.0743L229.794 43.1041Z" fill="#121212"/>
<path d="M238.753 43.1041V38.2891H239.552V40.286H240.343L241.801 38.2891H242.739L241.036 40.5958L242.807 43.1041H241.85L240.392 41.04H239.552V43.1041H238.753Z" fill="#121212"/>
<path d="M244.34 43.1041L245.591 38.2891H247.569L248.853 43.1041H248.021L247.689 41.8649H245.451L245.139 43.1041H244.34ZM245.662 41.1109H247.501L246.954 39.0468H246.201L245.662 41.1109Z" fill="#121212"/>
<path d="M250.451 39.9052V38.289H251.269V39.9052C251.262 40.0354 251.282 40.1657 251.33 40.2873C251.377 40.409 251.45 40.5192 251.544 40.6107C251.752 40.7898 252.022 40.8822 252.297 40.8683C252.593 40.8746 252.886 40.816 253.156 40.6966C253.259 40.6516 253.355 40.5939 253.443 40.5248V38.2853H254.241V43.1004H253.443V41.234C253.329 41.3003 253.211 41.3577 253.089 41.4057C252.768 41.5239 252.428 41.5821 252.086 41.5774C251.867 41.5892 251.647 41.5558 251.441 41.4794C251.234 41.4029 251.046 41.2851 250.888 41.1333C250.586 40.7964 250.429 40.3555 250.451 39.9052Z" fill="#121212"/>
<path d="M256.596 43.1041V38.2891H260.103V39.0356H257.394V40.2748H259.583V41.0213H257.394V42.3277H260.103V43.0743L256.596 43.1041Z" fill="#121212"/>
<path d="M262.763 42.522C262.283 42.0341 262.015 41.3798 262.015 40.6986C262.015 40.0174 262.283 39.3631 262.763 38.8752C263.007 38.6376 263.297 38.4511 263.616 38.3267C263.934 38.2023 264.274 38.1426 264.617 38.1511C264.992 38.1335 265.366 38.2041 265.709 38.3572C266.051 38.5103 266.352 38.7415 266.587 39.032C266.799 39.2891 266.955 39.5863 267.047 39.9054H266.248C266.164 39.7215 266.046 39.5545 265.901 39.4127C265.733 39.2461 265.533 39.1154 265.312 39.0287C265.091 38.9421 264.854 38.9012 264.617 38.9088C264.381 38.8995 264.145 38.9388 263.925 39.0243C263.706 39.1097 263.506 39.2394 263.339 39.4052C263.022 39.7625 262.846 40.2224 262.846 40.6986C262.846 41.1748 263.022 41.6347 263.339 41.9919C263.693 42.3181 264.162 42.4948 264.645 42.4843C265.128 42.4739 265.588 42.2771 265.928 41.9359C266.083 41.7779 266.203 41.5898 266.282 41.3835H267.092C266.982 41.7211 266.811 42.0361 266.587 42.3129C266.36 42.613 266.064 42.8543 265.723 43.0161C265.382 43.178 265.006 43.2556 264.628 43.2424C264.284 43.2531 263.942 43.1948 263.621 43.071C263.301 42.9472 263.009 42.7604 262.763 42.522Z" fill="#121212"/>
<path d="M268.784 39.0468V38.3003H272.773V39.0468H271.18V43.1042H270.381V39.0468H268.784Z" fill="#121212"/>
<path d="M274.718 43.1043V38.2892H277.114C277.512 38.2742 277.902 38.4073 278.206 38.6625C278.336 38.7709 278.439 38.9067 278.508 39.0598C278.577 39.2129 278.61 39.3794 278.606 39.5471C278.614 39.7023 278.584 39.8572 278.519 39.9983C278.453 40.1395 278.354 40.2626 278.229 40.3571C278.116 40.4413 277.988 40.5045 277.852 40.5437V40.5773C278.013 40.6117 278.166 40.6749 278.304 40.764C278.458 40.877 278.58 41.0266 278.659 41.1989C278.738 41.3713 278.771 41.5606 278.757 41.7494C278.762 41.9373 278.725 42.124 278.648 42.2958C278.571 42.4676 278.456 42.6202 278.312 42.7422C277.951 43.0122 277.505 43.1447 277.054 43.1155L274.718 43.1043ZM275.516 40.2489H277.08C277.266 40.2627 277.45 40.2037 277.592 40.0846C277.654 40.0254 277.702 39.9538 277.733 39.8745C277.764 39.7953 277.778 39.7104 277.773 39.6255C277.777 39.5463 277.762 39.4674 277.731 39.3944C277.7 39.3215 277.652 39.2563 277.592 39.2037C277.447 39.091 277.264 39.0352 277.08 39.047H275.516V40.2489ZM275.516 42.3466H277.046C277.649 42.3466 277.947 42.1189 277.947 41.6598C277.947 41.2007 277.649 40.973 277.046 40.973H275.516V42.3466Z" fill="#121212"/>
<path d="M281.537 42.5146C281.062 42.0274 280.796 41.3763 280.796 40.6987C280.796 40.0211 281.062 39.37 281.537 38.8828C282.041 38.4133 282.706 38.1519 283.398 38.1519C284.09 38.1519 284.755 38.4133 285.259 38.8828C285.735 39.37 286 40.0211 286 40.6987C286 41.3763 285.735 42.0274 285.259 42.5146C284.755 42.9825 284.089 43.2428 283.398 43.2428C282.707 43.2428 282.042 42.9825 281.537 42.5146ZM282.121 39.4054C281.803 39.7626 281.628 40.2225 281.628 40.6987C281.628 41.175 281.803 41.6348 282.121 41.9921C282.469 42.3089 282.924 42.4848 283.396 42.4848C283.869 42.4848 284.324 42.3089 284.671 41.9921C284.992 41.6359 285.169 41.1756 285.169 40.6987C285.169 40.2218 284.992 39.7615 284.671 39.4054C284.324 39.0885 283.869 38.9126 283.396 38.9126C282.924 38.9126 282.469 39.0885 282.121 39.4054Z" fill="#121212"/>
<path fill-rule="evenodd" clip-rule="evenodd" d="M17.6144 37.9235L16.5572 28.8635H17.262L21.5732 47.9052L30.8011 38.6198L40.3727 48.1363L44.738 28.8635H45.4428L44.3856 37.9235V52.1255L62 69.632V0H38.75L32.0572 32.3477H30.2952L23.6024 0H0V69.6206L17.6144 51.8916V37.9235ZM35.1579 53.7492L30.9091 49.623L26.7144 53.7492L17.6145 62.7007V62.8805L29.437 53.7492L31.0001 52.5422L32.5603 53.7492L44.3857 62.8805V62.7122L35.1579 53.7492ZM27.709 63.3941H34.2881V70H27.709V63.3941Z" fill="url(#paint0_linear_72_2172)"/>
<defs>
<linearGradient id="paint0_linear_72_2172" x1="122.252" y1="34.9999" x2="3.22121e-07" y2="34.9999" gradientUnits="userSpaceOnUse">
<stop stop-color="#7EBA47"/>
<stop offset="1" stop-color="#4C7E3A"/>
</linearGradient>
</defs>
</svg>
