<svg xmlns="http://www.w3.org/2000/svg" xmlns:xlink="http://www.w3.org/1999/xlink" width="560"
    height="181" viewBox="0 0 560 181" fill="none">
    <path
        d="M0 7.61999C0 3.49626 2.44292 0.15332 5.45641 0.15332H554.544C557.557 0.15332 560 3.49626 560 7.61999V82.2867C560 86.4104 557.557 89.7533 554.544 89.7533H402.798C402.386 89.7533 402.051 90.0876 402.051 90.5C402.051 90.9124 402.386 91.2467 402.798 91.2467H554.544C557.557 91.2467 560 94.5896 560 98.7133V173.38C560 177.504 557.557 180.847 554.544 180.847H5.4564C2.44291 180.847 0 177.504 0 173.38V98.7133C0 94.5896 2.44292 91.2467 5.45641 91.2467H157.202C157.614 91.2467 157.949 90.9124 157.949 90.5C157.949 90.0876 157.614 89.7533 157.202 89.7533H5.4564C2.44291 89.7533 0 86.4104 0 82.2867V7.61999Z"
        fill="#000" />
</svg>